<svg width="1315" height="575" viewBox="0 0 1315 575" fill="none" xmlns="http://www.w3.org/2000/svg">
<g clip-path="url(#clip0_600_2846)">
<rect width="1315" height="575" fill="#F6FCFF"/>
<path d="M20 409.257C20 409.257 146.572 360.022 229.308 369.122C317.141 378.783 346.734 461.905 435.094 462.937C525.783 463.996 556.726 369.201 647.421 369.122C738.296 369.043 769.423 465.823 860.252 462.937C945.016 460.243 971.439 375.889 1055.97 369.122C1157.78 360.973 1300 462.937 1300 462.937" stroke="#76C5FF" stroke-width="8"/>
<path d="M315.484 433.378L311.487 402.558L419.883 169.749L442.295 166.843L448.486 214.584L433.342 216.548L351.445 392.461L351.759 394.879L535.298 371.08L539.608 404.317L315.484 433.378ZM469.695 477.902L429.575 168.493L465.313 163.859L505.434 473.268L469.695 477.902Z" fill="#6DA2C2"/>
<path d="M844.892 353.017L840.896 322.197L949.291 89.388L971.704 86.4819L977.894 134.223L962.751 136.186L880.854 312.1L881.167 314.517L1064.71 290.718L1069.02 323.956L844.892 353.017ZM999.104 397.541L958.983 88.1313L994.722 83.4972L1034.84 392.907L999.104 397.541Z" fill="#6DA2C2"/>
<path d="M722.501 465.56C698.451 469.271 676.955 465.883 658.014 455.398C639.056 444.806 623.177 427.69 610.378 404.048C597.562 380.3 588.41 350.646 582.923 315.084C577.469 279.736 577.281 248.861 582.36 222.461C587.529 195.938 597.555 174.77 612.438 158.957C627.412 143.021 646.817 133.214 670.655 129.536C694.493 125.858 715.899 129.368 734.873 140.066C753.937 150.642 769.877 167.803 782.693 191.551C795.599 215.176 804.779 244.663 810.233 280.012C815.72 315.573 815.933 346.607 810.87 373.114C805.792 399.514 795.811 420.62 780.927 436.433C766.027 452.14 746.552 461.849 722.501 465.56ZM717.08 430.424C740.918 426.746 757.661 412.39 767.308 387.356C776.956 362.323 778.494 328.511 771.923 285.923C767.553 257.601 760.799 233.954 751.661 214.979C742.63 195.989 731.669 182.147 718.778 173.453C705.995 164.743 691.728 161.603 675.978 164.033C652.353 167.678 635.688 182.185 625.983 207.555C616.262 232.818 614.679 266.691 621.234 309.173C625.604 337.494 632.296 361.097 641.311 379.981C650.326 398.866 661.217 412.61 673.985 421.213C686.859 429.8 701.224 432.871 717.08 430.424Z" fill="#6DA2C2"/>
<path d="M18 409C18 409 170 356.863 229.003 368.875C314.535 386.289 343.775 462.753 430.945 465.979C525.445 469.475 558.955 366.284 653.484 368.875C742.457 371.314 771.508 469.414 860.449 465.979C942.685 462.802 966.916 381.467 1048.33 368.875C1144.5 354 1297.5 465.98 1297.5 465.98L1300 744H14L18 409Z" fill="#F6FCFF"/>
</g>
<defs>
<clipPath id="clip0_600_2846">
<rect width="1315" height="575" fill="white"/>
</clipPath>
</defs>
</svg>
