<svg width="37" height="37" viewBox="0 0 37 37" fill="none" xmlns="http://www.w3.org/2000/svg">
<rect width="37" height="37" rx="5" fill="#D9E7F1"/>
<path d="M26.4593 23.5632C26.4593 23.8384 26.398 24.1213 26.2679 24.3965C26.1377 24.6717 25.9693 24.9316 25.7473 25.1762C25.3722 25.589 24.9587 25.8871 24.4917 26.0782C24.0324 26.2693 23.5348 26.3687 22.9989 26.3687C22.218 26.3687 21.3835 26.1852 20.5031 25.8107C19.6226 25.4361 18.7422 24.9316 17.8695 24.2971C16.9891 23.655 16.1546 22.944 15.3584 22.1567C14.5698 21.3617 13.8578 20.5284 13.2224 19.657C12.5946 18.7855 12.0893 17.9141 11.7219 17.0503C11.3544 16.1788 11.1707 15.3456 11.1707 14.5506C11.1707 14.0308 11.2625 13.5339 11.4463 13.0752C11.63 12.6089 11.9209 12.1809 12.3267 11.7986C12.8166 11.3171 13.3526 11.0801 13.9191 11.0801C14.1334 11.0801 14.3478 11.1259 14.5392 11.2177C14.7383 11.3094 14.9143 11.447 15.0521 11.6458L16.8283 14.1454C16.9661 14.3366 17.0656 14.5124 17.1345 14.6805C17.2034 14.8411 17.2417 15.0016 17.2417 15.1469C17.2417 15.3303 17.1881 15.5138 17.0809 15.6896C16.9814 15.8654 16.8359 16.0489 16.6522 16.2323L16.0704 16.8362C15.9861 16.9203 15.9479 17.0197 15.9479 17.142C15.9479 17.2032 15.9555 17.2567 15.9708 17.3178C15.9938 17.379 16.0168 17.4249 16.0321 17.4707C16.1699 17.723 16.4072 18.0517 16.7441 18.4492C17.0886 18.8467 17.4561 19.2518 17.8542 19.657C18.2676 20.0621 18.6657 20.4367 19.0714 20.7807C19.4695 21.1171 19.7987 21.3464 20.059 21.484C20.0973 21.4993 20.1432 21.5222 20.1968 21.5451C20.2581 21.5681 20.3193 21.5757 20.3882 21.5757C20.5184 21.5757 20.6179 21.5298 20.7021 21.4458L21.284 20.8724C21.4754 20.6813 21.6591 20.5361 21.8352 20.4444C22.0113 20.3373 22.1873 20.2838 22.3787 20.2838C22.5242 20.2838 22.6773 20.3144 22.8457 20.3832C23.0142 20.452 23.1903 20.5514 23.3816 20.6813L25.9157 22.4777C26.1148 22.6153 26.2526 22.7759 26.3368 22.967C26.4133 23.1581 26.4593 23.3492 26.4593 23.5632Z" stroke="#96BFD2" stroke-width="2" stroke-miterlimit="10"/>
<path d="M12.119 31.8296L11.7535 31.6288L11.3535 31.7473C9.25526 32.369 7.90052 32.7558 7.0265 32.9125C6.82472 32.9486 6.66908 32.9684 6.55083 32.9779C6.58146 32.7535 6.64507 32.4582 6.74135 32.0566C6.77435 31.919 6.81035 31.7722 6.84855 31.6166C7.05344 30.7815 7.32153 29.689 7.52715 28.3661L7.59055 27.9582L7.34781 27.6244C5.60707 25.2304 4.58057 22.2852 4.58057 19.0972C4.58057 11.0801 11.0797 4.58105 19.0967 4.58105C27.1137 4.58105 33.6128 11.0801 33.6128 19.0972C33.6128 27.1142 27.1137 33.6133 19.0967 33.6133C16.5656 33.6133 14.1886 32.9664 12.119 31.8296Z" stroke="#96BFD2" stroke-width="2"/>
</svg>
