<svg width="16" height="16" viewBox="0 0 16 16" fill="none" xmlns="http://www.w3.org/2000/svg">
<path d="M11.796 10.4362C11.796 10.5781 11.7644 10.7239 11.6973 10.8658C11.6302 11.0077 11.5434 11.1417 11.4289 11.2678C11.2355 11.4807 11.0224 11.6344 10.7816 11.7329C10.5447 11.8315 10.2882 11.8827 10.0119 11.8827C9.60924 11.8827 9.17899 11.7881 8.72505 11.595C8.27112 11.4019 7.81718 11.1417 7.36719 10.8146C6.91325 10.4835 6.483 10.117 6.07249 9.71101C5.66592 9.30111 5.29882 8.87151 4.9712 8.42219C4.64752 7.97288 4.387 7.52357 4.19753 7.07819C4.00806 6.62888 3.91333 6.19927 3.91333 5.78937C3.91333 5.52136 3.9607 5.26517 4.05543 5.02869C4.15017 4.78827 4.30016 4.56755 4.50937 4.37049C4.76199 4.12218 5.0383 4 5.3304 4C5.44092 4 5.55145 4.02365 5.65013 4.07094C5.75276 4.11824 5.84354 4.18918 5.9146 4.29166L6.83036 5.58048C6.90141 5.67901 6.95273 5.76967 6.98825 5.85638C7.02378 5.93914 7.04352 6.02191 7.04352 6.0968C7.04352 6.19139 7.01588 6.28598 6.96062 6.37663C6.90931 6.46728 6.83431 6.56188 6.73958 6.65647L6.43958 6.96784C6.39616 7.01119 6.37643 7.06243 6.37643 7.12549C6.37643 7.15702 6.38037 7.18461 6.38827 7.21614C6.40011 7.24767 6.41195 7.27132 6.41985 7.29497C6.4909 7.42503 6.61326 7.59451 6.78694 7.79946C6.96457 8.00441 7.15404 8.2133 7.3593 8.42219C7.57245 8.63108 7.77771 8.82421 7.98691 9.00157C8.19217 9.17499 8.3619 9.29323 8.49611 9.36418C8.51585 9.37206 8.53953 9.38388 8.56716 9.39571C8.59874 9.40753 8.63032 9.41147 8.66584 9.41147C8.73295 9.41147 8.78426 9.38782 8.82768 9.34447L9.12767 9.04887C9.22635 8.95033 9.32109 8.87545 9.41188 8.82815C9.50266 8.77297 9.59345 8.74538 9.69213 8.74538C9.76713 8.74538 9.84608 8.76115 9.93292 8.79662C10.0198 8.83209 10.1105 8.88333 10.2092 8.95033L11.5158 9.87655C11.6184 9.94749 11.6895 10.0303 11.7329 10.1288C11.7723 10.2273 11.796 10.3259 11.796 10.4362Z" stroke="#1B8755" stroke-miterlimit="10"/>
<path d="M4.39487 14.5784L4.21207 14.478L4.01211 14.5373C2.93059 14.8577 2.23113 15.0575 1.77945 15.1384C1.66404 15.1591 1.57738 15.1695 1.5135 15.1738C1.52831 15.0549 1.56214 14.8966 1.61452 14.6781C1.63155 14.6071 1.65012 14.5314 1.66983 14.4511C1.77547 14.0205 1.91352 13.4579 2.01942 12.7766L2.05112 12.5727L1.92975 12.4057C1.03037 11.1688 0.5 9.6471 0.5 8C0.5 3.85786 3.85786 0.5 8 0.5C12.1421 0.5 15.5 3.85786 15.5 8C15.5 12.1421 12.1421 15.5 8 15.5C6.69231 15.5 5.46418 15.1657 4.39487 14.5784Z" stroke="#1B8755"/>
</svg>
