<svg width="28" height="28" fill="none" xmlns="http://www.w3.org/2000/svg"><g stroke="#58CE63"><path d="M19.309 16.243c0 .197-.043.4-.133.597-.09.197-.208.384-.363.559-.26.296-.548.51-.873.646-.32.137-.666.208-1.04.208-.543 0-1.123-.131-1.736-.4a9.297 9.297 0 0 1-1.833-1.084c-.613-.46-1.194-.97-1.748-1.534a15.47 15.47 0 0 1-1.486-1.79 9.84 9.84 0 0 1-1.044-1.868c-.256-.624-.384-1.222-.384-1.791 0-.373.064-.729.192-1.057.128-.334.33-.64.612-.915.341-.345.714-.515 1.109-.515.149 0 .298.033.431.099a.875.875 0 0 1 .357.307l1.236 1.79c.096.138.165.264.213.384.048.115.075.23.075.334a.76.76 0 0 1-.112.389c-.07.126-.17.257-.298.389l-.405.433a.297.297 0 0 0-.085.219c0 .043.005.082.016.125.016.044.032.077.042.11.096.18.261.416.496.701.24.285.495.575.772.865.288.29.565.56.847.806.277.24.507.405.688.503.026.011.058.028.096.044a.36.36 0 0 0 .133.022.29.29 0 0 0 .218-.093l.405-.41c.133-.138.261-.242.384-.307a.695.695 0 0 1 .378-.115.83.83 0 0 1 .325.07c.117.05.24.121.373.214l1.764 1.287a.825.825 0 0 1 .293.351c.053.137.085.274.085.427Z" stroke-miterlimit="10"/><path d="m7.738 24.49-.356-.19-.387.111c-1.895.543-3.113.878-3.897 1.014-.115.02-.212.034-.294.043.03-.163.077-.366.141-.623l.096-.381c.185-.728.429-1.687.616-2.847l.067-.42-.256-.34A12.148 12.148 0 0 1 1 13.517C1 6.637 6.787 1 14 1s13 5.637 13 12.517-5.787 12.518-13 12.518a13.33 13.33 0 0 1-6.262-1.546Z" stroke-width="2"/></g></svg>